<svg width="148" height="47" viewBox="0 0 148 47" fill="none" xmlns="http://www.w3.org/2000/svg">
<g clip-path="url(#clip0_1700_3180)">
<g opacity="0.95">
<path opacity="0.95" fill-rule="evenodd" clip-rule="evenodd" d="M16.0755 0C16.2591 3.43735e-06 16.4277 0.100915 16.5139 0.262387L32.0916 29.4397C32.1953 29.6339 32.1578 29.873 31.9996 30.0264L16.4219 45.1373C16.2291 45.3244 15.9219 45.3244 15.7291 45.1374L0.149938 30.0265C-0.008275 29.873 -0.0457644 29.6339 0.0579371 29.4397L15.6371 0.26237C15.7233 0.100901 15.8919 -3.43717e-06 16.0755 0ZM1.10974 29.5765L16.0755 44.0925L31.0398 29.5765L16.0755 1.5481L1.10974 29.5765Z" fill="#F2F2F2"/>
<path opacity="0.95" fill-rule="evenodd" clip-rule="evenodd" d="M10.4069 10.0834C10.5012 9.97389 10.6389 9.91089 10.7837 9.91089H21.3661C21.5109 9.91089 21.6485 9.97389 21.7428 10.0834C21.8372 10.1929 21.8788 10.3379 21.8569 10.4806L19.5287 25.6088L31.7844 29.1947C31.8024 29.1996 31.82 29.2055 31.8372 29.2124C31.9042 29.2389 31.9626 29.2788 32.0103 29.328C32.058 29.3771 32.0961 29.4366 32.1205 29.5042C32.1407 29.5598 32.151 29.6194 32.1499 29.6801C32.149 29.7409 32.1367 29.8001 32.1146 29.8551C32.088 29.9219 32.048 29.9801 31.9986 30.0276C31.9493 30.0752 31.8896 30.1131 31.8217 30.1374C31.8043 30.1436 31.7865 30.149 31.7685 30.1533L18.2966 33.615L16.5664 44.8578C16.5292 45.0993 16.3208 45.2776 16.0756 45.2776C15.8304 45.2776 15.6219 45.0993 15.5848 44.8579L13.8469 33.568L0.382826 30.1536C0.36472 30.1494 0.346911 30.1441 0.329477 30.1379C0.191706 30.0891 0.0871096 29.984 0.0354817 29.856C0.0133199 29.801 0.000918265 29.7418 -0.000157413 29.681C-0.00130375 29.6201 0.00893869 29.5604 0.0290972 29.5047C0.0782278 29.3679 0.18341 29.2641 0.311595 29.2128C0.32913 29.2058 0.347097 29.1997 0.365408 29.1947L12.6216 25.6084L10.2929 10.4806C10.2709 10.3379 10.3126 10.1929 10.4069 10.0834ZM12.7735 26.5951L2.37497 29.6379L13.6833 32.5056L12.7735 26.5951ZM13.7349 26.3138L16.0742 25.6293L18.4154 26.3143L16.0755 41.519L13.7349 26.3138ZM18.5673 25.3275L20.7876 10.9003H11.3622L13.583 25.327L15.9273 24.6411C15.9742 24.6265 16.0236 24.6189 16.0739 24.6188C16.1244 24.6188 16.1739 24.6265 16.2211 24.6411L18.5673 25.3275ZM19.3769 26.5956L18.4603 32.5512L29.7855 29.641L19.3769 26.5956Z" fill="#F2F2F2"/>
</g>
<path d="M53.5088 33.0147C52.9413 33.0147 52.66 32.7928 52.6647 32.3489V31.4726C52.6647 31.0514 52.946 30.8408 53.5088 30.8408H63.4556C62.3546 28.5049 61.2778 26.185 60.2251 23.8811C59.1724 21.5772 58.1084 19.2215 57.033 16.814L49.7648 32.5906C49.6191 32.8733 49.3501 33.0147 48.9575 33.0147H47.7459C47.404 33.0147 47.1586 32.927 47.0124 32.7518C46.9406 32.6673 46.8982 32.5617 46.8916 32.4511C46.8849 32.3406 46.9144 32.2309 46.9755 32.1384L54.7928 15.3073V15.378C54.9778 15.0136 55.2821 14.7228 55.6554 14.5539C56.0684 14.3356 56.5286 14.2211 56.9961 14.2204C57.4624 14.227 57.9208 14.3412 58.3354 14.5539C58.7875 14.7763 59.0873 15.051 59.2348 15.378V15.3073C60.5589 18.1341 61.8435 20.9394 63.0881 23.7228C64.3328 26.5063 65.6177 29.3115 66.9428 32.1384C66.9916 32.2367 67.0106 32.3471 66.9974 32.4559C66.9844 32.5649 66.9397 32.6677 66.8691 32.7518C66.7272 32.927 66.4775 33.0147 66.1341 33.0147H53.5088ZM85.1466 30.8352C85.6602 30.8352 85.9184 31.0458 85.9184 31.467V32.3433C85.9184 32.7871 85.6602 33.009 85.1466 33.009H77.4032C76.5636 33.0237 75.7289 32.8798 74.9431 32.585C74.2794 32.3327 73.6695 31.9577 73.1455 31.4797C72.6759 31.053 72.3005 30.5335 72.0432 29.9546C71.8033 29.4131 71.6786 28.8278 71.6772 28.2359V14.8819C71.6772 14.438 71.9339 14.2147 72.4475 14.2147H73.5485C74.116 14.2147 74.3997 14.438 74.3997 14.8819V27.744C74.4024 28.1098 74.4705 28.4721 74.6012 28.814C74.7415 29.1846 74.9536 29.5242 75.2254 29.8133C75.5255 30.1297 75.8882 30.3805 76.2909 30.5497C76.7609 30.7456 77.2668 30.8418 77.7763 30.8323L85.1466 30.8352ZM96.8924 16.3886C96.3825 16.3794 95.8761 16.4756 95.4055 16.6713C95.003 16.8399 94.6405 17.0908 94.3415 17.4076C94.0664 17.7008 93.854 18.0465 93.7172 18.4239C93.5875 18.7719 93.5193 19.1397 93.5158 19.5108V27.7511C93.5185 28.1169 93.5866 28.4791 93.7172 28.821C93.857 29.1919 94.0692 29.5316 94.3415 29.8203C94.641 30.1368 95.0033 30.3875 95.4055 30.5567C95.8761 30.7523 96.3825 30.8486 96.8924 30.8394H104.27C104.783 30.8394 105.04 31.05 105.04 31.4712V32.3475C105.04 32.7914 104.783 33.0133 104.27 33.0133H96.5249C95.6859 33.0278 94.8515 32.8839 94.0662 32.5892C93.4025 32.3368 92.7926 31.9618 92.2687 31.4839C91.7995 31.0571 91.4245 30.5378 91.1677 29.9589C90.9274 29.4174 90.8023 28.8322 90.8003 28.2401V19.0218C90.8065 18.4375 90.9315 17.8605 91.1677 17.3257C91.4201 16.7357 91.7954 16.2057 92.2687 15.7709C92.7955 15.2918 93.405 14.9115 94.0676 14.6486C94.8504 14.3457 95.6853 14.1988 96.5249 14.2161H104.27C104.783 14.2161 105.04 14.4395 105.04 14.8833V15.7596C105.04 16.1836 104.783 16.39 104.27 16.39L96.8924 16.3886ZM115.207 33.0147C113.373 33.0147 112.07 32.6349 111.298 31.8755C110.526 31.116 110.142 30.1384 110.145 28.9426V18.3151C110.145 17.1221 110.53 16.1402 111.301 15.3695C112.072 14.5987 113.386 14.2143 115.244 14.2161H119.943C121.801 14.2161 123.116 14.602 123.888 15.3737C124.66 16.1455 125.044 17.126 125.041 18.3151V28.9398C125.041 30.1317 124.663 31.1075 123.907 31.867C123.15 32.6264 121.841 33.009 119.979 33.0147H115.207ZM119.612 30.8408C120.737 30.8408 121.464 30.6599 121.795 30.2981C122.126 29.9362 122.292 29.3238 122.291 28.4606V18.8084C122.31 18.1873 122.109 17.5794 121.723 17.091C121.345 16.6199 120.616 16.3843 119.538 16.3843H115.648C115.176 16.3713 114.704 16.4368 114.253 16.578C113.931 16.6797 113.636 16.8537 113.391 17.0868C113.182 17.2943 113.035 17.5549 112.965 17.8402C112.89 18.1559 112.853 18.4796 112.856 18.8041V28.4465C112.85 28.8117 112.887 29.1765 112.965 29.5334C113.03 29.821 113.178 30.0834 113.391 30.2882C113.633 30.5063 113.932 30.653 114.253 30.7122C114.713 30.8028 115.18 30.8441 115.648 30.8352L119.612 30.8408ZM144.827 33.0147C144.692 33.0113 144.559 32.9754 144.441 32.9101C144.328 32.8544 144.223 32.7836 144.129 32.6995L137.413 23.6861C137.217 23.4524 137.199 23.2305 137.358 23.0204C137.516 22.8102 137.767 22.7052 138.109 22.7052H139.103C140.18 22.7052 141.067 22.4069 141.763 21.8105C142.098 21.537 142.366 21.1914 142.547 20.7996C142.729 20.4079 142.818 19.9804 142.81 19.549C142.81 18.4974 142.461 17.7087 141.763 17.1829C141.065 16.6571 140.178 16.3938 139.103 16.3928H131.175C130.661 16.3928 130.403 16.1836 130.403 15.7624V14.8861C130.403 14.4423 130.661 14.219 131.175 14.219H139.103C140.004 14.2077 140.902 14.3378 141.763 14.6048C142.502 14.8325 143.193 15.1954 143.8 15.6748C144.36 16.1268 144.807 16.7033 145.104 17.3582C145.415 18.0468 145.571 18.7942 145.562 19.549C145.566 20.1344 145.44 20.7135 145.195 21.2451C144.948 21.7734 144.627 22.2636 144.241 22.7009C143.85 23.1453 143.399 23.5343 142.901 23.8571C142.425 24.1722 141.915 24.4312 141.378 24.6288L147.032 32.0253C147.228 32.2589 147.252 32.4808 147.106 32.691C146.964 32.9016 146.714 33.0062 146.371 33.0062L144.827 33.0147ZM132.277 18.4225C132.845 18.4225 133.128 18.6458 133.128 19.0896V32.3433C133.128 32.7871 132.845 33.009 132.277 33.009H131.176C130.663 33.009 130.404 32.7871 130.404 32.3433V19.0896C130.404 18.6458 130.663 18.4225 131.176 18.4225H132.277Z" fill="#F2F2F2"/>
</g>
<defs>
<clipPath id="clip0_1700_3180">
<rect width="147.2" height="46.4" fill="white"/>
</clipPath>
</defs>
</svg>
