<svg width="240" height="813" viewBox="0 0 240 813" fill="none" xmlns="http://www.w3.org/2000/svg">
<path d="M533.017 317.305C543.033 275.09 508.312 248.702 461.25 233.41L286.942 185.575C189.234 158.761 106.649 219.437 103.459 320.384L99.5037 445.551C96.4879 540.981 165.769 638.917 258.041 666.023C387.164 703.953 519.739 737.448 520.363 717.719C521.504 681.624 401.443 611.79 370.961 497.033C340.478 382.276 520.496 370.073 533.017 317.305Z" fill="url(#paint0_linear_2088_4066)"/>
<path d="M518.582 337.115C528.598 294.9 493.877 268.512 446.815 253.221L272.507 205.385C174.799 178.571 92.2143 239.248 89.0242 340.194L85.0686 465.362C82.0528 560.792 151.334 658.728 243.606 685.833C372.729 723.763 505.304 757.258 505.928 737.53C507.069 701.434 387.008 631.601 356.526 516.844C326.043 402.087 506.061 389.884 518.582 337.115Z" fill="url(#paint1_linear_2088_4066)"/>
<path d="M547.452 297.492C557.468 255.277 522.747 228.889 475.685 213.598L301.377 165.762C203.669 138.948 121.084 199.625 117.894 300.571L113.939 425.739C110.923 521.169 180.204 619.105 272.476 646.21C401.599 684.141 534.174 717.635 534.798 697.907C535.939 661.811 415.878 591.978 385.396 477.221C354.913 362.464 534.931 350.261 547.452 297.492Z" fill="url(#paint2_linear_2088_4066)"/>
<path d="M561.886 277.68C571.903 235.465 537.182 209.077 490.119 193.785L315.812 145.95C218.103 119.136 135.519 179.813 132.329 280.759L128.373 405.927C125.357 501.357 194.639 599.293 286.911 626.398C416.034 664.328 548.609 697.823 549.232 678.095C550.373 641.999 430.312 572.166 399.83 457.409C369.348 342.652 549.366 330.448 561.886 277.68Z" fill="url(#paint3_linear_2088_4066)"/>
<path d="M576.321 257.869C586.338 215.654 551.617 189.267 504.555 173.975L330.247 126.14C232.538 99.3256 149.954 160.002 146.764 260.949L142.808 386.116C139.793 481.546 209.074 579.482 301.346 606.588C430.469 644.518 563.044 678.012 563.668 658.284C564.808 622.188 444.747 552.355 414.265 437.598C383.783 322.841 563.801 310.638 576.321 257.869Z" fill="url(#paint4_linear_2088_4066)"/>
<path d="M590.756 238.059C600.772 195.844 566.051 169.456 518.989 154.164L344.681 106.329C246.973 79.5151 164.389 140.192 161.199 241.138L157.243 366.306C154.227 461.736 223.508 559.672 315.78 586.777C444.903 624.707 577.479 658.202 578.102 638.474C579.243 602.378 459.182 532.545 428.7 417.788C398.218 303.031 578.235 290.827 590.756 238.059Z" fill="url(#paint5_linear_2088_4066)"/>
<path d="M518.582 337.115C528.598 294.9 493.877 268.512 446.815 253.221L272.507 205.385C174.799 178.571 92.2143 239.248 89.0242 340.194L85.0686 465.362C82.0528 560.792 151.334 658.728 243.606 685.833C372.729 723.763 505.304 757.258 505.928 737.53C507.069 701.434 387.008 631.601 356.526 516.844C326.043 402.087 506.061 389.884 518.582 337.115Z" fill="url(#paint6_linear_2088_4066)" stroke="#1FC781" stroke-opacity="0.25"/>
<path d="M533.017 317.305C543.033 275.09 508.312 248.702 461.25 233.41L286.942 185.575C189.234 158.761 106.649 219.437 103.459 320.384L99.5037 445.551C96.4879 540.981 165.769 638.917 258.041 666.023C387.164 703.953 519.739 737.448 520.363 717.719C521.504 681.624 401.443 611.79 370.961 497.033C340.478 382.276 520.496 370.073 533.017 317.305Z" fill="url(#paint7_linear_2088_4066)" stroke="#1FC781" stroke-opacity="0.25"/>
<path d="M547.452 297.492C557.468 255.277 522.747 228.889 475.685 213.598L301.377 165.762C203.669 138.948 121.084 199.625 117.894 300.571L113.939 425.739C110.923 521.169 180.204 619.105 272.476 646.21C401.599 684.141 534.174 717.635 534.798 697.907C535.939 661.811 415.878 591.978 385.396 477.221C354.913 362.464 534.931 350.261 547.452 297.492Z" fill="url(#paint8_linear_2088_4066)" stroke="#1FC781" stroke-opacity="0.25"/>
<path d="M561.886 277.68C571.903 235.465 537.182 209.077 490.119 193.785L315.812 145.95C218.103 119.136 135.519 179.813 132.329 280.759L128.373 405.927C125.357 501.357 194.639 599.293 286.911 626.398C416.034 664.328 548.609 697.823 549.232 678.095C550.373 641.999 430.312 572.166 399.83 457.409C369.348 342.652 549.366 330.448 561.886 277.68Z" fill="url(#paint9_linear_2088_4066)" stroke="#1FC781" stroke-opacity="0.25"/>
<path d="M576.321 257.869C586.338 215.654 551.617 189.267 504.555 173.975L330.247 126.14C232.538 99.3256 149.954 160.002 146.764 260.949L142.808 386.116C139.793 481.546 209.074 579.482 301.346 606.588C430.469 644.518 563.044 678.012 563.668 658.284C564.808 622.188 444.747 552.355 414.265 437.598C383.783 322.841 563.801 310.638 576.321 257.869Z" fill="url(#paint10_linear_2088_4066)" stroke="#1FC781" stroke-opacity="0.25"/>
<path d="M590.756 238.059C600.772 195.844 566.051 169.456 518.989 154.164L344.681 106.329C246.973 79.5151 164.389 140.192 161.199 241.138L157.243 366.306C154.227 461.736 223.508 559.672 315.78 586.777C444.903 624.707 577.479 658.202 578.102 638.474C579.243 602.378 459.182 532.545 428.7 417.788C398.218 303.031 578.235 290.827 590.756 238.059Z" fill="url(#paint11_linear_2088_4066)" stroke="#1FC781" stroke-opacity="0.25"/>
<defs>
<linearGradient id="paint0_linear_2088_4066" x1="528.806" y1="491.993" x2="98.4658" y2="478.394" gradientUnits="userSpaceOnUse">
<stop offset="0.541667" stop-color="#161617"/>
<stop offset="0.869792" stop-color="#141F15"/>
</linearGradient>
<linearGradient id="paint1_linear_2088_4066" x1="514.371" y1="511.804" x2="84.0307" y2="498.204" gradientUnits="userSpaceOnUse">
<stop offset="0.541667" stop-color="#161617"/>
<stop offset="0.869792" stop-color="#141F15"/>
</linearGradient>
<linearGradient id="paint2_linear_2088_4066" x1="543.241" y1="472.181" x2="112.901" y2="458.581" gradientUnits="userSpaceOnUse">
<stop offset="0.541667" stop-color="#161617"/>
<stop offset="0.869792" stop-color="#141F15"/>
</linearGradient>
<linearGradient id="paint3_linear_2088_4066" x1="557.676" y1="452.369" x2="127.335" y2="438.769" gradientUnits="userSpaceOnUse">
<stop offset="0.541667" stop-color="#161617"/>
<stop offset="0.869792" stop-color="#141F15"/>
</linearGradient>
<linearGradient id="paint4_linear_2088_4066" x1="572.111" y1="432.558" x2="141.77" y2="418.958" gradientUnits="userSpaceOnUse">
<stop offset="0.541667" stop-color="#161617"/>
<stop offset="0.869792" stop-color="#141F15"/>
</linearGradient>
<linearGradient id="paint5_linear_2088_4066" x1="586.546" y1="412.748" x2="156.205" y2="399.148" gradientUnits="userSpaceOnUse">
<stop offset="0.541667" stop-color="#161617"/>
<stop offset="0.869792" stop-color="#141F15"/>
</linearGradient>
<linearGradient id="paint6_linear_2088_4066" x1="514.371" y1="511.804" x2="84.0307" y2="498.204" gradientUnits="userSpaceOnUse">
<stop offset="0.541667" stop-color="#161617"/>
<stop offset="0.869792" stop-color="#141F15"/>
</linearGradient>
<linearGradient id="paint7_linear_2088_4066" x1="528.806" y1="491.993" x2="98.4658" y2="478.394" gradientUnits="userSpaceOnUse">
<stop offset="0.541667" stop-color="#161617"/>
<stop offset="0.869792" stop-color="#141F15"/>
</linearGradient>
<linearGradient id="paint8_linear_2088_4066" x1="543.241" y1="472.181" x2="112.901" y2="458.581" gradientUnits="userSpaceOnUse">
<stop offset="0.541667" stop-color="#161617"/>
<stop offset="0.869792" stop-color="#141F15"/>
</linearGradient>
<linearGradient id="paint9_linear_2088_4066" x1="557.676" y1="452.369" x2="127.335" y2="438.769" gradientUnits="userSpaceOnUse">
<stop offset="0.541667" stop-color="#161617"/>
<stop offset="0.869792" stop-color="#141F15"/>
</linearGradient>
<linearGradient id="paint10_linear_2088_4066" x1="572.111" y1="432.558" x2="141.77" y2="418.958" gradientUnits="userSpaceOnUse">
<stop offset="0.541667" stop-color="#161617"/>
<stop offset="0.869792" stop-color="#141F15"/>
</linearGradient>
<linearGradient id="paint11_linear_2088_4066" x1="586.546" y1="412.748" x2="156.205" y2="399.148" gradientUnits="userSpaceOnUse">
<stop offset="0.541667" stop-color="#161617"/>
<stop offset="0.869792" stop-color="#141F15"/>
</linearGradient>
</defs>
</svg>
