<svg width="240" height="813" viewBox="0 0 240 813" fill="none" xmlns="http://www.w3.org/2000/svg">
<path d="M-293.37 317.305C-303.387 275.09 -268.666 248.702 -221.604 233.41L-47.2959 185.575C50.4126 158.761 132.997 219.437 136.187 320.384L140.143 445.551C143.158 540.981 73.8773 638.917 -18.395 666.023C-147.518 703.953 -280.093 737.448 -280.717 717.719C-281.857 681.624 -161.797 611.79 -131.314 497.033C-100.832 382.276 -280.85 370.073 -293.37 317.305Z" fill="url(#paint0_linear_2088_4079)"/>
<path d="M-278.936 337.115C-288.952 294.9 -254.231 268.512 -207.169 253.221L-32.8611 205.385C64.8474 178.571 147.432 239.248 150.622 340.194L154.577 465.362C157.593 560.792 88.3121 658.728 -3.96015 685.833C-133.083 723.763 -265.658 757.258 -266.282 737.53C-267.423 701.434 -147.362 631.601 -116.88 516.844C-86.3974 402.087 -266.415 389.884 -278.936 337.115Z" fill="url(#paint1_linear_2088_4079)"/>
<path d="M-307.805 297.492C-317.821 255.277 -283.101 228.889 -236.038 213.598L-61.7307 165.762C35.9778 138.948 118.562 199.625 121.752 300.571L125.708 425.739C128.724 521.169 59.4425 619.105 -32.8298 646.21C-161.953 684.141 -294.528 717.635 -295.151 697.907C-296.292 661.811 -176.231 591.978 -145.749 477.221C-115.267 362.464 -295.285 350.261 -307.805 297.492Z" fill="url(#paint2_linear_2088_4079)"/>
<path d="M-322.24 277.68C-332.256 235.465 -297.536 209.077 -250.473 193.785L-76.1655 145.95C21.543 119.136 104.127 179.813 107.317 280.759L111.273 405.927C114.289 501.357 45.0077 599.293 -47.2646 626.398C-176.387 664.328 -308.963 697.823 -309.586 678.095C-310.727 641.999 -190.666 572.166 -160.184 457.409C-129.702 342.652 -309.72 330.448 -322.24 277.68Z" fill="url(#paint3_linear_2088_4079)"/>
<path d="M-336.675 257.869C-346.691 215.654 -311.971 189.267 -264.908 173.975L-90.6006 126.14C7.10795 99.3256 89.6922 160.002 92.8823 260.949L96.8379 386.116C99.8537 481.546 30.5726 579.482 -61.6997 606.588C-190.822 644.518 -323.398 678.012 -324.021 658.284C-325.162 622.188 -205.101 552.355 -174.619 437.598C-144.137 322.841 -324.155 310.638 -336.675 257.869Z" fill="url(#paint4_linear_2088_4079)"/>
<path d="M-351.11 238.059C-361.126 195.844 -326.405 169.456 -279.343 154.164L-105.035 106.329C-7.32687 79.5151 75.2573 140.192 78.4475 241.138L82.4031 366.306C85.4189 461.736 16.1378 559.672 -76.1345 586.777C-205.257 624.707 -337.833 658.202 -338.456 638.474C-339.597 602.378 -219.536 532.545 -189.054 417.788C-158.572 303.031 -338.589 290.827 -351.11 238.059Z" fill="url(#paint5_linear_2088_4079)"/>
<path d="M-278.936 337.115C-288.952 294.9 -254.231 268.512 -207.169 253.221L-32.8611 205.385C64.8474 178.571 147.432 239.248 150.622 340.194L154.577 465.362C157.593 560.792 88.3121 658.728 -3.96015 685.833C-133.083 723.763 -265.658 757.258 -266.282 737.53C-267.423 701.434 -147.362 631.601 -116.88 516.844C-86.3974 402.087 -266.415 389.884 -278.936 337.115Z" fill="url(#paint6_linear_2088_4079)" stroke="#1FC781" stroke-opacity="0.25"/>
<path d="M-293.37 317.305C-303.387 275.09 -268.666 248.702 -221.604 233.41L-47.2959 185.575C50.4126 158.761 132.997 219.437 136.187 320.384L140.143 445.551C143.158 540.981 73.8773 638.917 -18.395 666.023C-147.518 703.953 -280.093 737.448 -280.717 717.719C-281.857 681.624 -161.797 611.79 -131.314 497.033C-100.832 382.276 -280.85 370.073 -293.37 317.305Z" fill="url(#paint7_linear_2088_4079)" stroke="#1FC781" stroke-opacity="0.25"/>
<path d="M-307.805 297.492C-317.821 255.277 -283.101 228.889 -236.038 213.598L-61.7307 165.762C35.9778 138.948 118.562 199.625 121.752 300.571L125.708 425.739C128.724 521.169 59.4425 619.105 -32.8298 646.21C-161.953 684.141 -294.528 717.635 -295.151 697.907C-296.292 661.811 -176.231 591.978 -145.749 477.221C-115.267 362.464 -295.285 350.261 -307.805 297.492Z" fill="url(#paint8_linear_2088_4079)" stroke="#1FC781" stroke-opacity="0.25"/>
<path d="M-322.24 277.68C-332.256 235.465 -297.536 209.077 -250.473 193.785L-76.1655 145.95C21.543 119.136 104.127 179.813 107.317 280.759L111.273 405.927C114.289 501.357 45.0077 599.293 -47.2646 626.398C-176.387 664.328 -308.963 697.823 -309.586 678.095C-310.727 641.999 -190.666 572.166 -160.184 457.409C-129.702 342.652 -309.72 330.448 -322.24 277.68Z" fill="url(#paint9_linear_2088_4079)" stroke="#1FC781" stroke-opacity="0.25"/>
<path d="M-336.675 257.869C-346.691 215.654 -311.971 189.267 -264.908 173.975L-90.6006 126.14C7.10795 99.3256 89.6922 160.002 92.8823 260.949L96.8379 386.116C99.8537 481.546 30.5726 579.482 -61.6997 606.588C-190.822 644.518 -323.398 678.012 -324.021 658.284C-325.162 622.188 -205.101 552.355 -174.619 437.598C-144.137 322.841 -324.155 310.638 -336.675 257.869Z" fill="url(#paint10_linear_2088_4079)" stroke="#1FC781" stroke-opacity="0.25"/>
<path d="M-351.11 238.059C-361.126 195.844 -326.405 169.456 -279.343 154.164L-105.035 106.329C-7.32687 79.5151 75.2573 140.192 78.4475 241.138L82.4031 366.306C85.4189 461.736 16.1378 559.672 -76.1345 586.777C-205.257 624.707 -337.833 658.202 -338.456 638.474C-339.597 602.378 -219.536 532.545 -189.054 417.788C-158.572 303.031 -338.589 290.827 -351.11 238.059Z" fill="url(#paint11_linear_2088_4079)" stroke="#1FC781" stroke-opacity="0.25"/>
<defs>
<linearGradient id="paint0_linear_2088_4079" x1="-289.16" y1="491.993" x2="141.18" y2="478.394" gradientUnits="userSpaceOnUse">
<stop offset="0.541667" stop-color="#161617"/>
<stop offset="0.869792" stop-color="#141F15"/>
</linearGradient>
<linearGradient id="paint1_linear_2088_4079" x1="-274.725" y1="511.804" x2="155.615" y2="498.204" gradientUnits="userSpaceOnUse">
<stop offset="0.541667" stop-color="#161617"/>
<stop offset="0.869792" stop-color="#141F15"/>
</linearGradient>
<linearGradient id="paint2_linear_2088_4079" x1="-303.595" y1="472.181" x2="126.746" y2="458.581" gradientUnits="userSpaceOnUse">
<stop offset="0.541667" stop-color="#161617"/>
<stop offset="0.869792" stop-color="#141F15"/>
</linearGradient>
<linearGradient id="paint3_linear_2088_4079" x1="-318.03" y1="452.369" x2="112.311" y2="438.769" gradientUnits="userSpaceOnUse">
<stop offset="0.541667" stop-color="#161617"/>
<stop offset="0.869792" stop-color="#141F15"/>
</linearGradient>
<linearGradient id="paint4_linear_2088_4079" x1="-332.465" y1="432.558" x2="97.8758" y2="418.958" gradientUnits="userSpaceOnUse">
<stop offset="0.541667" stop-color="#161617"/>
<stop offset="0.869792" stop-color="#141F15"/>
</linearGradient>
<linearGradient id="paint5_linear_2088_4079" x1="-346.9" y1="412.748" x2="83.441" y2="399.148" gradientUnits="userSpaceOnUse">
<stop offset="0.541667" stop-color="#161617"/>
<stop offset="0.869792" stop-color="#141F15"/>
</linearGradient>
<linearGradient id="paint6_linear_2088_4079" x1="-274.725" y1="511.804" x2="155.615" y2="498.204" gradientUnits="userSpaceOnUse">
<stop offset="0.541667" stop-color="#161617"/>
<stop offset="0.869792" stop-color="#141F15"/>
</linearGradient>
<linearGradient id="paint7_linear_2088_4079" x1="-289.16" y1="491.993" x2="141.18" y2="478.394" gradientUnits="userSpaceOnUse">
<stop offset="0.541667" stop-color="#161617"/>
<stop offset="0.869792" stop-color="#141F15"/>
</linearGradient>
<linearGradient id="paint8_linear_2088_4079" x1="-303.595" y1="472.181" x2="126.746" y2="458.581" gradientUnits="userSpaceOnUse">
<stop offset="0.541667" stop-color="#161617"/>
<stop offset="0.869792" stop-color="#141F15"/>
</linearGradient>
<linearGradient id="paint9_linear_2088_4079" x1="-318.03" y1="452.369" x2="112.311" y2="438.769" gradientUnits="userSpaceOnUse">
<stop offset="0.541667" stop-color="#161617"/>
<stop offset="0.869792" stop-color="#141F15"/>
</linearGradient>
<linearGradient id="paint10_linear_2088_4079" x1="-332.465" y1="432.558" x2="97.8758" y2="418.958" gradientUnits="userSpaceOnUse">
<stop offset="0.541667" stop-color="#161617"/>
<stop offset="0.869792" stop-color="#141F15"/>
</linearGradient>
<linearGradient id="paint11_linear_2088_4079" x1="-346.9" y1="412.748" x2="83.441" y2="399.148" gradientUnits="userSpaceOnUse">
<stop offset="0.541667" stop-color="#161617"/>
<stop offset="0.869792" stop-color="#141F15"/>
</linearGradient>
</defs>
</svg>
