<svg width="60" height="60" viewBox="0 0 60 60" fill="none">
  <path d="M0 19.2C0 12.4794 0 9.11905 1.30792 6.55211C2.4584 4.29417 4.29417 2.4584 6.55211 1.30792C9.11905 0 12.4794 0 19.2 0H40.8C47.5206 0 50.8809 0 53.4479 1.30792C55.7058 2.4584 57.5416 4.29417 58.6921 6.55211C60 9.11905 60 12.4794 60 19.2V40.8C60 47.5206 60 50.8809 58.6921 53.4479C57.5416 55.7058 55.7058 57.5416 53.4479 58.6921C50.8809 60 47.5206 60 40.8 60H19.2C12.4794 60 9.11905 60 6.55211 58.6921C4.29417 57.5416 2.4584 55.7058 1.30792 53.4479C0 50.8809 0 47.5206 0 40.8V19.2Z" fill="white"/>
  <path d="M30.0002 6C16.747 6 6 17.0169 6 30.6076C6 41.4799 12.8768 50.7039 22.4128 53.9577C23.6123 54.1855 24.0526 53.4239 24.0526 52.7739C24.0526 52.1872 24.0304 50.2487 24.02 48.1925C17.3431 49.6811 15.9342 45.2891 15.9342 45.2891C14.8425 42.4448 13.2695 41.6885 13.2695 41.6885C11.0919 40.1613 13.4336 40.1926 13.4336 40.1926C15.8436 40.3662 17.1126 42.7285 17.1126 42.7285C19.2532 46.4904 22.7272 45.4028 24.0967 44.7741C24.3121 43.1836 24.9341 42.0981 25.6205 41.4836C20.2897 40.8613 14.6859 38.7513 14.6859 29.3224C14.6859 26.6358 15.6234 24.4406 17.1587 22.7174C16.9095 22.0976 16.088 19.5947 17.3912 16.2052C17.3912 16.2052 19.4066 15.5439 23.993 18.7276C25.9074 18.1824 27.9606 17.9089 30.0002 17.8996C32.0398 17.9089 34.0946 18.1824 36.0126 18.7276C40.5934 15.5439 42.606 16.2052 42.606 16.2052C43.9123 19.5947 43.0905 22.0976 42.8413 22.7174C44.3801 24.4406 45.3113 26.6358 45.3113 29.3224C45.3113 38.7738 39.6968 40.8548 34.3525 41.464C35.2133 42.2276 35.9804 43.7252 35.9804 46.021C35.9804 49.3135 35.9526 51.9634 35.9526 52.7739C35.9526 53.4288 36.3846 54.1961 37.6011 53.9544C47.132 50.697 54 41.4762 54 30.6076C54 17.0169 43.2546 6 30.0002 6Z" fill="#161514"/>
  <path d="M15.1611 41.1624C15.1083 41.2835 14.9211 41.3198 14.7505 41.2367C14.5768 41.1572 14.4792 40.9922 14.5355 40.8707C14.5871 40.746 14.7747 40.7113 14.9481 40.7949C15.1222 40.8743 15.2214 41.041 15.1611 41.1624Z" fill="#161514"/>
  <path d="M16.1313 42.263C16.017 42.3707 15.7937 42.3207 15.6422 42.1504C15.4855 41.9806 15.4561 41.7534 15.572 41.6441C15.6898 41.5363 15.9064 41.5868 16.0635 41.7566C16.2202 41.9285 16.2507 42.1541 16.1313 42.263Z" fill="#161514"/>
  <path d="M17.0755 43.6662C16.9287 43.7699 16.6887 43.6726 16.5404 43.456C16.3936 43.2393 16.3936 42.9795 16.5435 42.8754C16.6923 42.7713 16.9287 42.8649 17.0791 43.0799C17.2254 43.3002 17.2254 43.5601 17.0755 43.6662Z" fill="#161514"/>
  <path d="M18.3698 45.0219C18.2385 45.1692 17.9588 45.1297 17.7541 44.9287C17.5446 44.7322 17.4863 44.4534 17.618 44.3062C17.7509 44.1585 18.0322 44.2001 18.2385 44.3994C18.4463 44.5955 18.5098 44.8763 18.3698 45.0219Z" fill="#161514"/>
  <path d="M20.1549 45.809C20.097 45.9999 19.8276 46.0866 19.5563 46.0055C19.2853 45.922 19.108 45.6985 19.1628 45.5056C19.2191 45.3136 19.4896 45.2232 19.763 45.3099C20.0335 45.393 20.2112 45.6149 20.1549 45.809Z" fill="#161514"/>
  <path d="M22.1154 45.9552C22.1221 46.1561 21.892 46.3228 21.6072 46.3264C21.3208 46.3329 21.0891 46.1703 21.0859 45.9726C21.0859 45.7696 21.3109 45.6046 21.5973 45.5998C21.8821 45.5941 22.1154 45.7555 22.1154 45.9552Z" fill="#161514"/>
  <path d="M23.9398 45.6392C23.9739 45.8353 23.776 46.0366 23.4931 46.0903C23.2151 46.1419 22.9576 46.0209 22.9223 45.8264C22.8878 45.6255 23.0893 45.4241 23.367 45.3721C23.6502 45.3221 23.9037 45.4399 23.9398 45.6392Z" fill="#161514"/>
</svg>
