<svg width="60" height="60" viewBox="0 0 60 60" fill="none">
  <path d="M0 19.2C0 12.4794 0 9.11905 1.30792 6.55211C2.4584 4.29417 4.29417 2.4584 6.55211 1.30792C9.11905 0 12.4794 0 19.2 0H40.8C47.5206 0 50.8809 0 53.4479 1.30792C55.7058 2.4584 57.5416 4.29417 58.6921 6.55211C60 9.11905 60 12.4794 60 19.2V40.8C60 47.5206 60 50.8809 58.6921 53.4479C57.5416 55.7058 55.7058 57.5416 53.4479 58.6921C50.8809 60 47.5206 60 40.8 60H19.2C12.4794 60 9.11905 60 6.55211 58.6921C4.29417 57.5416 2.4584 55.7058 1.30792 53.4479C0 50.8809 0 47.5206 0 40.8V19.2Z" fill="white"/>
  <path fill-rule="evenodd" clip-rule="evenodd" d="M30 54C43.2548 54 54 43.2548 54 30C54 16.7452 43.2548 6 30 6C16.7452 6 6 16.7452 6 30C6 43.2548 16.7452 54 30 54Z" fill="#12100E"/>
  <path d="M17.7946 22.3039C17.8343 21.9019 17.6845 21.5046 17.3912 21.234L14.4034 17.5503V17H23.6807L30.8515 33.0952L37.1559 17H46V17.5503L43.4454 20.057C43.2251 20.2288 43.1159 20.5112 43.1615 20.7907V39.2093C43.1159 39.4888 43.2251 39.7712 43.4454 39.943L45.9402 42.4497V43H33.3912V42.4497L35.9757 39.8818C36.2297 39.622 36.2297 39.5456 36.2297 39.1481V24.2604L29.0439 42.9389H28.0728L19.7068 24.2604V36.779C19.6371 37.3053 19.8079 37.8351 20.1699 38.2158L23.5313 42.3886V42.9389H14V42.3886L17.3613 38.2158C17.7208 37.8345 17.8816 37.3011 17.7946 36.779V22.3039Z" fill="white"/>
</svg>
