<svg width="60" height="60" viewBox="0 0 60 60" fill="none"
  xmlns="http://www.w3.org/2000/svg">
  <path d="M0 19.2C0 12.4794 0 9.11905 1.30792 6.55211C2.4584 4.29417 4.29417 2.4584 6.55211 1.30792C9.11905 0 12.4794 0 19.2 0H40.8C47.5206 0 50.8809 0 53.4479 1.30792C55.7058 2.4584 57.5416 4.29417 58.6921 6.55211C60 9.11905 60 12.4794 60 19.2V40.8C60 47.5206 60 50.8809 58.6921 53.4479C57.5416 55.7058 55.7058 57.5416 53.4479 58.6921C50.8809 60 47.5206 60 40.8 60H19.2C12.4794 60 9.11905 60 6.55211 58.6921C4.29417 57.5416 2.4584 55.7058 1.30792 53.4479C0 50.8809 0 47.5206 0 40.8V19.2Z" fill="white"/>
  <path d="M30 54C43.2548 54 54 43.2548 54 30C54 16.7452 43.2548 6 30 6C16.7452 6 6 16.7452 6 30C6 43.2548 16.7452 54 30 54Z" fill="#1E96C8"/>
  <path d="M14.9381 31.1741C17.7437 29.6287 20.8755 28.3389 23.8017 27.0425C28.8359 24.9191 33.8901 22.8325 38.9953 20.8899C39.9886 20.5589 41.7733 20.2352 41.9483 21.7072C41.8525 23.7908 41.4583 25.8622 41.1879 27.9336C40.5016 32.4888 39.7084 37.0284 38.9349 41.5686C38.6684 43.0809 36.7739 43.8638 35.5617 42.896C32.6485 40.9282 29.7129 38.9796 26.8369 36.9662C25.8948 36.0089 26.7684 34.6342 27.6098 33.9506C30.0092 31.586 32.5538 29.577 34.8278 27.0902C35.4412 25.6089 33.6288 26.8573 33.031 27.2398C29.7462 29.5034 26.5418 31.9052 23.0786 33.8946C21.3096 34.8684 19.2478 34.0362 17.4796 33.4928C15.8942 32.8364 13.571 32.1751 14.938 31.1742L14.9381 31.1741Z" fill="white"/>
  <defs>
    <linearGradient id="paint0_linear_2088_4496" x1="24.0028" y1="8.0016" x2="12.0028" y2="36" gradientUnits="userSpaceOnUse">
      <stop stop-color="#37AEE2"/>
      <stop offset="1" stop-color="#1E96C8"/>
    </linearGradient>
  </defs>
</svg>
