<svg width="60" height="60" viewBox="0 0 60 60" fill="none">
  <path d="M0 19.2C0 12.4794 0 9.11905 1.30792 6.55211C2.4584 4.29417 4.29417 2.4584 6.55211 1.30792C9.11905 0 12.4794 0 19.2 0H40.8C47.5206 0 50.8809 0 53.4479 1.30792C55.7058 2.4584 57.5416 4.29417 58.6921 6.55211C60 9.11905 60 12.4794 60 19.2V40.8C60 47.5206 60 50.8809 58.6921 53.4479C57.5416 55.7058 55.7058 57.5416 53.4479 58.6921C50.8809 60 47.5206 60 40.8 60H19.2C12.4794 60 9.11905 60 6.55211 58.6921C4.29417 57.5416 2.4584 55.7058 1.30792 53.4479C0 50.8809 0 47.5206 0 40.8V19.2Z" fill="white"/>
  <path d="M6 30C6 16.7452 16.7452 6 30 6C43.2548 6 54 16.7452 54 30C54 43.2548 43.2548 54 30 54C16.7452 54 6 43.2548 6 30Z" fill="#55ACEE"/>
  <path d="M29.2812 25.5074L29.3316 26.3379L28.4922 26.2362C25.4369 25.8464 22.7677 24.5244 20.5013 22.3042L19.3934 21.2026L19.108 22.0161C18.5036 23.8295 18.8897 25.7447 20.1488 27.0327C20.8203 27.7445 20.6692 27.8462 19.5109 27.4225C19.108 27.2869 18.7554 27.1853 18.7219 27.2361C18.6044 27.3547 19.0073 28.897 19.3262 29.5071C19.7627 30.3545 20.6524 31.185 21.6261 31.6765L22.4487 32.0663L21.475 32.0832C20.5349 32.0832 20.5013 32.1002 20.6021 32.4561C20.9378 33.5577 22.264 34.7271 23.7413 35.2356L24.7822 35.5915L23.8756 36.1338C22.5326 36.9134 20.9546 37.3541 19.3766 37.388C18.6211 37.4049 18 37.4727 18 37.5236C18 37.693 20.0481 38.6421 21.24 39.015C24.8157 40.1166 29.063 39.6421 32.2526 37.7608C34.5189 36.4219 36.7852 33.7611 37.8428 31.185C38.4136 29.8122 38.9844 27.3039 38.9844 26.1006C38.9844 25.321 39.0347 25.2193 39.9748 24.2871C40.5288 23.7448 41.0492 23.1516 41.15 22.9821C41.3178 22.6601 41.3011 22.6601 40.4449 22.9482C39.018 23.4567 38.8165 23.3889 39.5216 22.6262C40.042 22.0839 40.6631 21.1009 40.6631 20.8128C40.6631 20.762 40.4113 20.8467 40.1259 20.9992C39.8238 21.1687 39.1523 21.4229 38.6486 21.5755L37.7421 21.8636L36.9195 21.3043C36.4663 20.9992 35.8283 20.6603 35.4926 20.5586C34.6364 20.3213 33.327 20.3552 32.5548 20.6264C30.4563 21.389 29.1301 23.355 29.2812 25.5074Z" fill="white"/>
</svg>
