<svg viewBox="0 0 16 16" fill="none" xmlns="http://www.w3.org/2000/svg">
<path d="M5 5C5 4.72386 5.22386 4.5 5.5 4.5H8C8.27614 4.5 8.5 4.72386 8.5 5C8.5 5.27614 8.27614 5.5 8 5.5H5.5C5.22386 5.5 5 5.27614 5 5Z" fill="#F2F2F7"/>
<path d="M10 4.5C9.72386 4.5 9.5 4.72386 9.5 5C9.5 5.27614 9.72386 5.5 10 5.5H10.5C10.7761 5.5 11 5.27614 11 5C11 4.72386 10.7761 4.5 10.5 4.5H10Z" fill="#F2F2F7"/>
<path d="M5.5 11C5.22386 11 5 11.2239 5 11.5C5 11.7761 5.22386 12 5.5 12H8C8.27614 12 8.5 11.7761 8.5 11.5C8.5 11.2239 8.27614 11 8 11H5.5Z" fill="#F2F2F7"/>
<path d="M5 9.5C5 9.22386 5.22386 9 5.5 9H8C8.27614 9 8.5 9.22386 8.5 9.5C8.5 9.77614 8.27614 10 8 10H5.5C5.22386 10 5 9.77614 5 9.5Z" fill="#F2F2F7"/>
<path d="M10 11C9.72386 11 9.5 11.2239 9.5 11.5C9.5 11.7761 9.72386 12 10 12H10.5C10.7761 12 11 11.7761 11 11.5C11 11.2239 10.7761 11 10.5 11H10Z" fill="#F2F2F7"/>
<path d="M9.5 9.5C9.5 9.22386 9.72386 9 10 9H10.5C10.7761 9 11 9.22386 11 9.5C11 9.77614 10.7761 10 10.5 10H10C9.72386 10 9.5 9.77614 9.5 9.5Z" fill="#F2F2F7"/>
<path fill-rule="evenodd" clip-rule="evenodd" d="M3.67709 7.5C3.26188 7.13353 3 6.59735 3 6V4C3 2.89543 3.89543 2 5 2H11C12.1046 2 13 2.89543 13 4V6C13 6.59735 12.7381 7.13353 12.3229 7.5C12.7381 7.86647 13 8.40265 13 9V12C13 13.1046 12.1046 14 11 14H5C3.89543 14 3 13.1046 3 12V9C3 8.40265 3.26188 7.86647 3.67709 7.5ZM5 3H11C11.5523 3 12 3.44772 12 4V6C12 6.55228 11.5523 7 11 7H5C4.44772 7 4 6.55228 4 6V4C4 3.44772 4.44772 3 5 3ZM5 8C4.44772 8 4 8.44772 4 9V12C4 12.5523 4.44772 13 5 13H11C11.5523 13 12 12.5523 12 12V9C12 8.44772 11.5523 8 11 8H5Z" fill="#F2F2F7"/>
</svg>
